<svg xmlns="http://www.w3.org/2000/svg" width="64.05" height="64.05" viewBox="0 0 1500 1500">
  <defs>
    <style>
      .cls-1 {
        fill: red;
      }

      .cls-1, .cls-2, .cls-3, .cls-5 {
        stroke: #000;
        stroke-width: 1px;
      }

      .cls-1, .cls-3, .cls-4, .cls-5 {
        fill-rule: evenodd;
      }

      .cls-2, .cls-3 {
        fill: #fff;
      }
    </style>
  </defs>
  <path class="cls-1" d="M750.047,337c156.938-1.112,283.883,133.206,284.043,291-0.01,40.449-7.99,79.335-23.04,126.021-15.014,46.149-37.091,100.1-64.593,158.279-27.473,57.644-60.371,119.52-96.328,169.16-35.927,49.1-74.913,85.95-113.861,81.17-39.348,2.28-75.023-35.7-107.044-85.11-31.99-49.96-60.327-111.347-84.3-168.261-23.941-57.452-43.517-110.427-57.288-155.895C473.9,707.36,465.961,668.863,466,628c-0.157-157.937,127.232-292.049,284.047-291"/>
  <rect class="cls-2" x="625.969" y="513.562" width="249.093" height="370.438"/>
  <path class="cls-3" d="M602.986,474.486c98.432-30.33,196.461-31.714,294.028,0v30.195H602.986V474.486"/>
  <path id="_" data-name="$" class="cls-4" d="M756.6,818.973v-23.62q27.363-1.167,46.042-16.871t18.676-41.01a47.005,47.005,0,0,0-5.27-22.387,48.643,48.643,0,0,0-14.238-16.546A74.838,74.838,0,0,0,780.64,687.9q-5.365-1.817-24.038-5.84V614.7q26.441,4.671,31.065,30.757l28.106-3.634q-2.592-14.664-10.54-24.593a54,54,0,0,0-19.693-15.378Q773.8,596.4,756.6,594.975V583.814H740.33v11.161q-20.711,1.819-33.283,8.047a50.624,50.624,0,0,0-20.34,18.234,48.072,48.072,0,0,0-7.766,26.669q0,14.277,6.842,24.982a46.527,46.527,0,0,0,18.675,16.677,119.2,119.2,0,0,0,35.872,11.939v74.363a40.631,40.631,0,0,1-24.5-10.836q-10.635-9.666-14.145-30.693l-27.552,4.413q1.479,17.393,9.986,29.589a55.665,55.665,0,0,0,21.264,18.494q12.759,6.3,34.947,8.76v23.36H756.6ZM740.33,679.082q-34.211-8.955-34.208-32.059,0-13.373,9.338-21.937t24.87-10.644v64.64ZM756.6,704.768q21,5.712,28.9,13.367t7.9,20.5q0,15.963-10.687,25.761a44.724,44.724,0,0,1-26.11,11.485V704.768Z"/>
  <path class="cls-5" d="M663.964,870.771H650.241V528.625h13.723V870.771Z"/>
  <path class="cls-5" d="M709.088,870.771H695.147v-64.95h13.941v64.95Z"/>
  <path class="cls-5" d="M709.088,581.977H695.147V528.625h13.941v53.352Z"/>
  <path class="cls-5" d="M801.746,581.977H787.805V528.625h13.941v53.352Z"/>
  <path class="cls-5" d="M757.011,868.986H740V816.01h17.015v52.976Z"/>
  <path class="cls-5" d="M757.011,585.015H740V529h17.015v56.015Z"/>
  <path class="cls-5" d="M801.746,869.611H787.805v-63.79h13.941v63.79Z"/>
  <path class="cls-5" d="M842.9,869.611H829.175V527.466H842.9V869.611Z"/>
  <path class="cls-3" d="M731.355,450.918V437H769.7v13.916H731.355Z"/>
</svg>
