<svg xmlns="http://www.w3.org/2000/svg" xmlns:xlink="http://www.w3.org/1999/xlink" width="2100" height="1500" viewBox="0 0 2100 1500">
  <metadata><?xpacket begin="﻿" id="W5M0MpCehiHzreSzNTczkc9d"?>
<x:xmpmeta xmlns:x="adobe:ns:meta/" x:xmptk="Adobe XMP Core 5.6-c148 79.164036, 2019/08/13-01:06:57        ">
   <rdf:RDF xmlns:rdf="http://www.w3.org/1999/02/22-rdf-syntax-ns#">
      <rdf:Description rdf:about=""
            xmlns:xmp="http://ns.adobe.com/xap/1.0/">
         <xmp:CreatorTool>Adobe Photoshop 21.0 (Macintosh)</xmp:CreatorTool>
      </rdf:Description>
   </rdf:RDF>
</x:xmpmeta>
                                                                                                    
                                                                                                    
                                                                                                    
                                                                                                    
                                                                                                    
                                                                                                    
                                                                                                    
                                                                                                    
                                                                                                    
                                                                                                    
                                                                                                    
                                                                                                    
                                                                                                    
                                                                                                    
                                                                                                    
                                                                                                    
                                                                                                    
                                                                                                    
                                                                                                    
                                                                                                    
                           
<?xpacket end="w"?></metadata>
<defs>
    <style>
      .cls-1, .cls-6, .cls-7, .cls-8 {
        fill: #c4df9b;
      }

      .cls-1, .cls-6, .cls-7 {
        stroke: #c4df9b;
      }

      .cls-1, .cls-10, .cls-2, .cls-3, .cls-4, .cls-5, .cls-6, .cls-7, .cls-8, .cls-9 {
        stroke-width: 1px;
      }

      .cls-1 {
        filter: url(#filter);
      }

      .cls-10, .cls-2, .cls-3, .cls-4, .cls-5, .cls-8, .cls-9 {
        stroke: #000;
      }

      .cls-10, .cls-2, .cls-3, .cls-4, .cls-5, .cls-6, .cls-7, .cls-9 {
        fill-rule: evenodd;
      }

      .cls-2 {
        filter: url(#filter-2);
      }

      .cls-3 {
        filter: url(#filter-3);
      }

      .cls-4 {
        filter: url(#filter-4);
      }

      .cls-5 {
        filter: url(#filter-5);
      }

      .cls-6 {
        filter: url(#filter-6);
      }

      .cls-8 {
        filter: url(#filter-7);
      }

      .cls-9 {
        filter: url(#filter-8);
      }

      .cls-10 {
        filter: url(#filter-9);
      }
    </style>
    <filter id="filter" x="370" y="87" width="1361" height="1338" filterUnits="userSpaceOnUse">
      <feOffset result="offset" dy="6" in="SourceAlpha"/>
      <feGaussianBlur result="blur" stdDeviation="2"/>
      <feFlood result="flood" flood-opacity="0.2"/>
      <feComposite result="composite" operator="in" in2="blur"/>
      <feBlend result="blend" in="SourceGraphic"/>
    </filter>
    <filter id="filter-2" x="698" y="431.031" width="706" height="721.969" filterUnits="userSpaceOnUse">
      <feOffset result="offset" dy="6" in="SourceAlpha"/>
      <feGaussianBlur result="blur" stdDeviation="2"/>
      <feFlood result="flood" flood-opacity="0.2"/>
      <feComposite result="composite" operator="in" in2="blur"/>
      <feBlend result="blend" in="SourceGraphic"/>
    </filter>
    <filter id="filter-3" x="824" y="349.281" width="189" height="160.719" filterUnits="userSpaceOnUse">
      <feOffset result="offset" dy="6" in="SourceAlpha"/>
      <feGaussianBlur result="blur" stdDeviation="2"/>
      <feFlood result="flood" flood-opacity="0.2"/>
      <feComposite result="composite" operator="in" in2="blur"/>
      <feBlend result="blend" in="SourceGraphic"/>
    </filter>
    <filter id="filter-4" x="1082" y="349.281" width="189" height="160.719" filterUnits="userSpaceOnUse">
      <feOffset result="offset" dy="6" in="SourceAlpha"/>
      <feGaussianBlur result="blur" stdDeviation="2"/>
      <feFlood result="flood" flood-opacity="0.2"/>
      <feComposite result="composite" operator="in" in2="blur"/>
      <feBlend result="blend" in="SourceGraphic"/>
    </filter>
    <filter id="filter-5" x="935" y="291" width="232" height="177" filterUnits="userSpaceOnUse">
      <feOffset result="offset" dy="6" in="SourceAlpha"/>
      <feGaussianBlur result="blur" stdDeviation="2"/>
      <feFlood result="flood" flood-opacity="0.2"/>
      <feComposite result="composite" operator="in" in2="blur"/>
      <feBlend result="blend" in="SourceGraphic"/>
    </filter>
    <filter id="filter-6" x="973" y="314" width="168" height="98" filterUnits="userSpaceOnUse">
      <feOffset result="offset" dy="6" in="SourceAlpha"/>
      <feGaussianBlur result="blur" stdDeviation="2"/>
      <feFlood result="flood" flood-opacity="0.2"/>
      <feComposite result="composite" operator="in" in2="blur"/>
      <feBlend result="blend" in="SourceGraphic"/>
    </filter>
    <filter id="filter-7" x="835" y="579" width="445" height="426" filterUnits="userSpaceOnUse">
      <feOffset result="offset" dy="6" in="SourceAlpha"/>
      <feGaussianBlur result="blur" stdDeviation="2"/>
      <feFlood result="flood" flood-opacity="0.2"/>
      <feComposite result="composite" operator="in" in2="blur"/>
      <feBlend result="blend" in="SourceGraphic"/>
    </filter>
    <filter id="filter-8" x="1039" y="642" width="47" height="299" filterUnits="userSpaceOnUse">
      <feOffset result="offset" dy="6" in="SourceAlpha"/>
      <feGaussianBlur result="blur" stdDeviation="2"/>
      <feFlood result="flood" flood-opacity="0.2"/>
      <feComposite result="composite" operator="in" in2="blur"/>
      <feBlend result="blend" in="SourceGraphic"/>
    </filter>
    <filter id="filter-9" x="913" y="767" width="298" height="47" filterUnits="userSpaceOnUse">
      <feOffset result="offset" dy="6" in="SourceAlpha"/>
      <feGaussianBlur result="blur" stdDeviation="2"/>
      <feFlood result="flood" flood-opacity="0.2"/>
      <feComposite result="composite" operator="in" in2="blur"/>
      <feBlend result="blend" in="SourceGraphic"/>
    </filter>
  </defs>
  <g style="fill: #c4df9b; filter: url(#filter)">
    <ellipse id="ellipse-2" class="cls-1" cx="1050" cy="750" rx="675" ry="663" style="stroke: inherit; filter: none; fill: inherit"/>
  </g>
  <use xlink:href="#ellipse-2" style="stroke: #c4df9b; filter: none; fill: none"/>
  <g style="fill: ; filter: url(#filter-2)">
    <path id="path-7" class="cls-2" d="M1046.11,431.063c95.91-1.338,184.76,84.442,248.7,165.992,64.08,85.49,103.24,166.75,103.19,247.375-0.07,161.99-155.56,297.1-347.5,296.57-191.9.55-347.569-134.61-347.5-296.57,0.054-80.465,38.664-162.2,100.344-247.972,61.827-81.829,146.725-167.687,242.766-165.395" style="stroke: inherit; filter: none; fill: inherit"/>
  </g>
  <use xlink:href="#path-7" style="stroke: #000; filter: none; fill: none"/>
  <g style="fill: ; filter: url(#filter-3)">
    <path id="path-6" class="cls-3" d="M877.663,369.789a219.382,219.382,0,0,0,63.484,29.24c20.582,5.735,35.288,9.62,43.483,14.447,16.19,9.091,18.39,14.61,20.9,27.708,2,12.5-.77,26.713-18.045,29.728-8.126,1.228-19.395,2.044-39.12,1.537-19.141-.175-46.763-1.274-74.223,7.489-28.161,9.58-37.571,18.186-43.169,17.212-3.945-.064-4.008-11.206,24.951-25.547,23.341-12.82,58.8-16.9,78.975-21.177,21.535-4.219,28.024-10.891,23.912-17.242-3.772-6.465-20.308-13.329-43.372-23.365-22.38-9.693-49.642-25.721-61.6-39.209-14.693-14.665-15.636-20.807-11.29-21.3,5.027-.435,14.516,6.111,35.116,20.48" style="stroke: inherit; filter: none; fill: inherit"/>
  </g>
  <use xlink:href="#path-6" style="stroke: #000; filter: none; fill: none"/>
  <g style="fill: ; filter: url(#filter-4)">
    <path id="path-5" class="cls-4" d="M1215.81,369.789a219.354,219.354,0,0,1-63.49,29.24c-20.58,5.735-35.29,9.62-43.48,14.447-16.2,9.091-18.4,14.61-20.9,27.708-2,12.5.77,26.713,18.04,29.728,8.13,1.228,19.4,2.044,39.12,1.537,19.14-.175,46.77-1.274,74.23,7.489,28.16,9.58,37.57,18.186,43.17,17.212,3.94-.064,4-11.206-24.96-25.547-23.34-12.82-58.79-16.9-78.97-21.177-21.54-4.219-28.02-10.891-23.91-17.242,3.77-6.465,20.31-13.329,43.37-23.365,22.38-9.693,49.64-25.721,61.6-39.209,14.69-14.665,15.64-20.807,11.29-21.3-5.03-.435-14.51,6.111-35.11,20.48" style="stroke: inherit; filter: none; fill: inherit"/>
  </g>
  <use xlink:href="#path-5" style="stroke: #000; filter: none; fill: none"/>
  <g style="fill: ; filter: url(#filter-5)">
    <path id="path-4" class="cls-5" d="M1051.17,325.827c31.2,3.19,58.44-29.892,78.13-31.526,19.65-5.431,31.76,20.585,31.7,54.294-0.13,65.771-49.34,106.014-110.12,107.4-60.929-1.413-109.565-41.568-110.859-107.742-0.694-33.518,10.564-61.395,30.82-56.739,20.09,0.813,49.179,34.159,80.329,34.308" style="stroke: inherit; filter: none; fill: inherit"/>
  </g>
  <use xlink:href="#path-4" style="stroke: #000; filter: none; fill: none"/>
  <g style="fill: #c4df9b; filter: url(#filter-6)">
    <path id="path-3" class="cls-6" d="M1055.47,356.755c9.9-.113,17.06-4.9,28.29-12.839,10.69-7.667,25.44-18.481,37.82-24.432,14.57-8.274,16.05-5.377,10.24,4.708-5.42,9.758-18.14,26.7-22.99,38.986-10.22,25.2-14.82,32.877-25.36,34.686-9.33,1.666-19.91-3.482-32.83-2.116-13.02.212-23.29,6.708-32.92,3.23-10.33-3.576-18.783-16.422-25.389-38.971-6.761-23.662-27.115-60-2.485-40.421,10.138,6.524,24.9,17.627,36.1,25.182,11.74,7.854,19.91,12.16,29.52,11.987" style="stroke: inherit; filter: none; fill: inherit"/>
  </g>
  <use xlink:href="#path-3" style="stroke: #c4df9b; filter: none; fill: none"/>
  <path class="cls-7" d="M967.421,421.224q-0.519-3.555-1.416-7.217c33.53,9.694,60.085,17.185,87.525,25.314,27.36,7.772,55.61,16.181,90.37,19.468a21.723,21.723,0,0,0,1.11,4.207c-37.1-1.17-65.69-9.385-93.09-17.053-27.34-8.071-53.5-15.595-84.5-24.719"/>
  <path class="cls-7" d="M970.084,469.014l-19.078-19.746L1124.31,414l13.7,0.959Z"/>
  <g style="fill: #c4df9b; filter: url(#filter-7)">
    <ellipse id="ellipse" class="cls-8" cx="1057" cy="786" rx="217" ry="207" style="stroke: inherit; filter: none; fill: inherit"/>
  </g>
  <use xlink:href="#ellipse" style="stroke: #000; filter: none; fill: none"/>
  <g style="fill: ; filter: url(#filter-8)">
    <path id="path-2" class="cls-9" d="M1044.57,642H1080V929h-35.43V642Z" style="stroke: inherit; filter: none; fill: inherit"/>
  </g>
  <use xlink:href="#path-2" style="stroke: #000; filter: none; fill: none"/>
  <g style="fill: ; filter: url(#filter-9)">
    <path id="path" class="cls-10" d="M1205,767v35H918V767h287Z" style="stroke: inherit; filter: none; fill: inherit"/>
  </g>
  <use xlink:href="#path" style="stroke: #000; filter: none; fill: none"/>
</svg>
